<svg width="204" height="204" viewBox="0 0 204 204" fill="none" xmlns="http://www.w3.org/2000/svg">
<path d="M25.9167 33.9288L27.5863 38.656L22.6425 37.8233L22.1577 40.4885L27.2985 41.236L23.9141 45.0379L25.8246 46.6441L28.9945 42.7245L30.5037 47.5679L33.0151 46.6692L31.3088 41.9111L36.2893 42.7747L36.7491 40.2138L31.7435 39.4546L34.9677 35.7688L33.0571 34.1626L29.9858 38.0396L28.3663 33.1036L25.9167 33.9288Z" fill="black"/>
<path d="M75.2297 30.7927L77.3502 30.1355L74.3487 20.4499L82.6588 17.8746L82.0638 15.9547L73.7537 18.53L71.3826 10.879L80.0079 8.206L79.4129 6.28608L68.6671 9.61624L75.2297 30.7927Z" fill="black"/>
<path d="M95.6303 26.1414L107.749 25.9606L107.719 23.9508L97.82 24.0985L97.6979 15.9094L107.267 15.7667L107.237 13.7569L97.6679 13.8997L97.5493 5.95054L107.448 5.80286L107.418 3.79308L95.2996 3.97388L95.6303 26.1414Z" fill="black"/>
<path d="M112.447 26.0747L114.702 26.7004L119.822 20.3687L129.766 23.1282L130.862 31.1845L133.203 31.8342L129.939 7.9206L127.539 7.2548L112.447 26.0747ZM121.169 18.6565L128.079 10.02L129.465 20.9587L121.169 18.6565Z" fill="black"/>
<path d="M141.641 37.193L143.526 38.3652L154.171 21.2449L158.476 23.922L159.538 22.2151L149.041 15.6886L147.98 17.3955L152.286 20.0726L141.641 37.193Z" fill="black"/>
<path d="M170.222 31.0364L159.906 40.248C157.78 42.1463 156.827 43.6009 156.47 45.408C156.051 47.5515 156.771 49.8444 158.41 51.6793C160.068 53.5366 162.266 54.5107 164.443 54.3364C166.278 54.1852 167.831 53.4019 169.957 51.5036L180.273 42.292L178.794 40.6361L168.478 49.8477C166.979 51.1865 165.618 51.9594 164.375 52.1441C162.854 52.3768 161.15 51.6856 159.932 50.3206C158.733 48.9779 158.238 47.2077 158.641 45.7219C158.964 44.5079 159.886 43.2427 161.385 41.9039L171.701 32.6923L170.222 31.0364Z" fill="black"/>
<path d="M179.084 67.8536C181.318 71.5088 184.41 72.5647 188.014 70.8532C190.507 69.6693 191.902 67.7117 192.033 65.2586C192.118 63.6903 191.606 61.8415 190.345 59.1857L187.99 54.2263L167.963 63.7359L168.915 65.7413L187.126 57.0939L188.465 59.9123C189.468 62.0261 189.921 63.5383 189.921 64.8668C189.914 66.5306 188.919 67.9328 187.103 68.795C184.827 69.8759 182.902 69.5281 181.434 67.7672C180.74 66.9345 180.014 65.6852 178.959 63.463L173.085 74.5217L174.268 77.0149L179.084 67.8536Z" fill="black"/>
<path d="M176.256 84.9209L178.159 96.8905L180.144 96.5748L178.589 86.7977L186.678 85.5113L188.181 94.9625L190.166 94.6468L188.663 85.1956L196.514 83.9469L198.069 93.7241L200.054 93.4084L198.15 81.4388L176.256 84.9209Z" fill="black"/>
<path d="M178.474 103.433L177.712 109.355C177.288 112.657 177.495 115.043 178.377 117.123C179.912 120.708 182.9 122.877 187.006 123.405C191.142 123.936 194.637 122.632 196.988 119.637C198.51 117.685 199.284 115.425 199.797 111.438L200.463 106.261L178.474 103.433ZM180.184 105.892L198.186 108.206L197.792 111.271C197.367 114.574 196.642 116.689 195.483 118.173C193.61 120.503 190.656 121.605 187.383 121.185C184.496 120.813 182.113 119.357 180.736 117.124C179.564 115.188 179.289 112.854 179.79 108.956L180.184 105.892Z" fill="black"/>
<path d="M178.134 170.18L176.464 165.453L181.408 166.286L181.893 163.62L176.752 162.873L180.137 159.071L178.226 157.465L175.056 161.384L173.547 156.541L171.036 157.44L172.742 162.198L167.761 161.334L167.302 163.895L172.307 164.654L169.083 168.34L170.994 169.946L174.065 166.069L175.684 171.005L178.134 170.18Z" fill="black"/>
<path d="M130.824 172.696L128.703 173.353L131.358 181.921L127.289 183.182C124.424 184.07 122.992 184.922 121.995 186.267C120.931 187.696 120.727 189.675 121.385 191.796C122.139 194.231 123.651 195.867 125.549 196.316C127.116 196.709 128.818 196.527 131.541 195.684L137.386 193.872L130.824 172.696ZM131.953 183.841L134.671 192.609L131.662 193.542C129.226 194.297 127.645 194.567 126.653 194.403C125.196 194.164 124.12 193.021 123.534 191.13C123.028 189.496 123.278 187.974 124.181 187.035C124.909 186.244 126.079 185.661 128.028 185.057L131.953 183.841Z" fill="black"/>
<path d="M101.124 186.357C96.8713 186.871 94.6265 189.245 94.686 193.234C94.7272 195.994 95.9284 198.076 98.1056 199.214C99.4966 199.943 101.391 200.245 104.331 200.201L109.82 200.119L109.49 177.952L107.27 177.985L107.571 198.142L104.451 198.189C102.111 198.224 100.548 198.007 99.3395 197.455C97.8289 196.758 96.9666 195.27 96.9366 193.261C96.8991 190.741 98.0152 189.134 100.226 188.531C101.272 188.245 102.71 188.104 105.17 188.067L97.551 178.13L94.7913 178.171L101.124 186.357Z" fill="black"/>
<path d="M75.1773 196.889C81.3058 198.589 87.868 195.024 89.5124 189.098C91.2371 182.883 87.5869 176.515 81.285 174.766C75.1277 173.058 68.6522 176.647 66.9756 182.689C65.2831 188.788 68.9911 195.172 75.1773 196.889ZM75.7228 194.923C70.7218 193.535 67.764 188.262 69.1517 183.261C70.5234 178.318 75.7963 175.36 80.7395 176.732C85.8273 178.144 88.7642 183.38 87.3604 188.439C86.0047 193.324 80.666 196.295 75.7228 194.923Z" fill="black"/>
<path d="M45.5656 182.548L47.4509 183.721L55.4981 170.778C57.3515 167.798 59.3719 166.934 61.4101 168.202C63.2699 169.358 63.7641 171.29 62.7034 173.28L64.5632 174.437C66.2796 171.335 65.519 168.354 62.5127 166.485C59.2517 164.457 56.1315 165.555 53.6128 169.606L45.5656 182.548Z" fill="black"/>
<path d="M48.842 156.6L40.7693 147.56L39.2701 148.899L45.8641 156.283L39.7552 161.738L33.381 154.6L31.8817 155.939L38.256 163.077L32.3261 168.372L25.7321 160.988L24.2328 162.326L32.3055 171.367L48.842 156.6Z" fill="black"/>
<path d="M24.2808 129.076C25.7366 129.415 26.5102 129.645 27.3468 130.078C29.0472 130.931 30.4927 132.437 31.3548 134.252C33.5681 138.914 31.5486 144.522 26.8332 146.761C22.0094 149.052 16.5994 147.17 14.3218 142.373C13.4982 140.639 13.1868 138.794 13.4506 137.042C13.595 135.877 13.9339 135.052 14.766 133.727L13.6979 131.478C10.9897 134.657 10.5487 139.184 12.5176 143.33C15.3486 149.292 21.8905 151.599 27.8796 148.755C33.7603 145.963 36.0286 139.339 33.1847 133.35C31.2545 129.285 27.8906 127.097 23.2256 126.854L24.2808 129.076Z" fill="black"/>
<path d="M27.0639 114.591L26.7153 112.398L6.80547 115.565L6.00916 110.557L4.02411 110.873L5.96542 123.08L7.95047 122.764L7.15416 117.757L27.0639 114.591Z" fill="black"/>
<path d="M19.6819 97.8291C23.6661 98.1297 26.6029 95.7548 27.1118 91.7974C27.6015 87.9888 25.1978 84.8062 21.4486 84.3241C19.5145 84.0754 17.6855 84.6569 16.468 85.8917C15.6948 86.73 15.1596 87.5988 14.1845 89.7722C13.333 91.6893 12.9811 92.3094 12.3987 92.8395C11.753 93.3917 10.7176 93.682 9.70588 93.5519C7.47425 93.2649 6.07409 91.4516 6.35721 89.2497C6.64416 87.0181 8.3568 85.6957 10.7899 85.8271L11.0845 83.5359C7.50243 83.1661 4.80447 85.3296 4.34152 88.93C3.88623 92.4709 6.02686 95.3473 9.47844 95.7912C10.9959 95.9863 12.5266 95.6084 13.5753 94.7451C14.5194 93.9893 14.9011 93.373 16.0671 90.8914C16.7949 89.2307 17.3339 88.3321 17.9354 87.6533C18.7422 86.7891 19.9417 86.3989 21.2807 86.5711C23.8099 86.8963 25.4213 88.9485 25.0961 91.4777C24.9163 92.8762 24.1192 94.1348 23.0043 94.8081C22.1503 95.3335 21.372 95.5057 19.9841 95.4784L19.6819 97.8291Z" fill="black"/>
</svg>
