<svg width="156" height="70" viewBox="0 0 156 70" fill="none" xmlns="http://www.w3.org/2000/svg">
<path d="M59.5407 2.49738H59.0092V3.49738V11.7513C56.2489 8.44582 53.2154 5.92757 49.7602 4.16189C45.5333 2.00188 40.7376 1 35.1481 1C15.7191 1 1 15.7311 1 35.1728C1 54.6439 15.8642 69 35.8387 69C41.3013 69 45.8156 68.1175 49.8522 66.0224C53.1848 64.2926 56.1364 61.7649 59.0092 58.3283V66.5026V67.5026H59.5407H60.0092H60.5407H68.5265H69.0579H69.5265H70.0579V66.5026V29.7592C70.0579 23.6384 71.6012 18.9142 74.308 15.7361C76.9967 12.5792 80.9305 10.8325 85.9773 10.8325C90.8978 10.8325 95.4382 12.8018 98.3338 16.2362L98.3389 16.2421C100.875 19.2028 102.012 23.2933 102.012 29.7592V66.5026V67.5026H103.012H111.529H112.529V66.5026V29.9895C112.529 23.9816 113.436 20.4066 115.354 17.5282C118.138 13.3483 123.1 10.8325 128.794 10.8325C134.059 10.8325 138.572 12.914 141.229 16.4208C143.343 19.2799 144.483 23.7465 144.483 29.9895V66.5026V67.5026H145.483H154H155V66.5026V29.0681C155 20.6405 153.475 15.0978 149.726 10.2568L149.726 10.2566C145.135 4.33174 137.686 1 129.254 1C124.234 1 119.916 1.94665 116.154 4.01799C112.792 5.8692 109.93 8.58822 107.42 12.2246C105.091 8.5589 102.465 5.83494 99.3166 3.98825C95.7868 1.91747 91.6865 1 86.7829 1C82.7091 1 79.3517 1.62074 76.3544 3.10519C74.06 4.2415 72.0238 5.86063 70.0579 8.01351V3.49738V2.49738H69.5265H69.0579H68.5265H60.5407H60.0092H59.5407ZM35.3783 10.8325C48.743 10.8325 59.0092 21.2021 59.0092 34.712C59.0092 48.6046 48.8222 59.1675 35.8387 59.1675C22.1344 59.1675 11.6323 48.4581 11.6323 34.5969C11.6323 21.4416 22.2347 10.8325 35.3783 10.8325Z" stroke="black" stroke-width="2"/>
</svg>
