<svg width="283" height="123" viewBox="0 0 283 123" fill="none" xmlns="http://www.w3.org/2000/svg">
<path d="M124.06 3.48899H108.298V24.15C96.583 7.962 82.525 0.720001 62.29 0.720001C27.358 0.720001 0.945984 27.132 0.945984 62.064C0.945984 96.996 27.571 122.769 63.568 122.769C83.377 122.769 95.731 116.379 108.298 99.552V120H124.06V3.48899ZM62.716 15.204C88.489 15.204 108.298 35.226 108.298 61.212C108.298 87.837 88.702 108.285 63.568 108.285C37.156 108.285 16.921 87.624 16.921 60.999C16.921 35.652 37.369 15.204 62.716 15.204ZM109.281 120H125.043V52.053C125.043 28.836 136.758 15.204 156.354 15.204C165.939 15.204 174.885 19.038 180.636 25.854C185.748 31.818 187.878 39.912 187.878 52.053V120H203.64V52.479C203.64 41.19 205.344 34.161 209.178 28.41C214.716 20.103 224.514 15.204 235.59 15.204C245.814 15.204 254.76 19.251 260.085 26.28C264.345 32.031 266.475 40.764 266.475 52.479V120H282.237V50.775C282.237 35.439 279.468 25.641 272.865 17.121C264.771 6.684 251.565 0.720001 236.442 0.720001C218.337 0.720001 205.77 7.536 195.972 23.085C186.813 7.32299 175.524 0.720001 157.845 0.720001C143.148 0.720001 134.202 5.19299 125.043 16.908V3.48899H109.281V120Z" fill="black"/>
</svg>
