<svg width="152" height="66" viewBox="0 0 152 66" fill="none" xmlns="http://www.w3.org/2000/svg">
<path d="M66.5265 1.49738H58.0092V12.6702C51.6789 3.91623 44.0824 0 33.1481 0C14.2721 0 0 14.2827 0 33.1728C0 52.0628 14.3872 66 33.8387 66C44.5428 66 51.2185 62.5445 58.0092 53.445V64.5026H66.5265V1.49738ZM33.3783 7.83246C47.3052 7.83246 58.0092 18.6597 58.0092 32.712C58.0092 47.1099 47.4203 58.1675 33.8387 58.1675C19.5666 58.1675 8.63233 46.9948 8.63233 32.5969C8.63233 18.8901 19.6817 7.83246 33.3783 7.83246ZM58.5407 64.5026H67.0579V27.7592C67.0579 15.2042 73.3883 7.83246 83.9773 7.83246C89.1567 7.83246 93.9908 9.90576 97.0984 13.5916C99.8607 16.8167 101.012 21.1937 101.012 27.7592V64.5026H109.529V27.9895C109.529 21.8848 110.45 18.0838 112.521 14.9738C115.514 10.4817 120.809 7.83246 126.794 7.83246C132.318 7.83246 137.152 10.0209 140.03 13.822C142.332 16.9319 143.483 21.6544 143.483 27.9895V64.5026H152V27.0681C152 18.7749 150.504 13.4764 146.936 8.86911C142.562 3.22513 135.426 0 127.254 0C117.471 0 110.68 3.68586 105.385 12.0942C100.436 3.57068 94.336 0 84.7829 0C76.8412 0 72.0071 2.41884 67.0579 8.75392V1.49738H58.5407V64.5026Z" fill="black"/>
</svg>
